# xmcd
# Copyright (C) 1995-1998 Ti Kan
#
# Track frame offsets:
#       150
#       9675
#       29925
#       48225
#       71700
#       88575
#       120075
#       144825
#       161400
#       174825
#       190200
#       205425
#       226050
#       244575
#
# Disc length: 3491 seconds
#
# Revision: 8
# Processed by: cddbd v1.5.2PL0 Copyright (c) Steve Scherf et al.
# Submitted via: CD-Transfer v1.0
#
DISCID=b10da10e
DTITLE=All-American Rejects, The - 
DYEAR=09
DGENRE=
TTITLE0=Judgement
TTITLE1=Take Me Ewey
TTITLE2=We Walk
TTITLE3=Driffter
TTITLE4=I'm In Love With  A German Film Star (Radio Edit)
TTITLE5=Pop Porno (Alex Gaudino and Jason Rooney Remix)
TTITLE6=Pop Porno 8disco Kriminals Mix)
TTITLE7=Dance 'till We're High
TTITLE8=Never Ever (Radio Edit)
TTITLE9=Keep This Fire Burning (Freemasons Edit)
TTITLE10=Change (Main Single Version)
TTITLE11=Gives You Hell (Bloody Beetroots Remix)
TTITLE12=I Stay In Love (Jody Den Broeder Radio Edit)
TTITLE13=Poker Face (Dave Aude Radio Edit)
EXTD=
EXTT0=
EXTT1=
EXTT2=
EXTT3=
EXTT4=
EXTT5=
EXTT6=
EXTT7=
EXTT8=
EXTT9=
EXTT10=
EXTT11=
EXTT12=
EXTT13=
PLAYORDER=
